<svg width="163" height="26" viewBox="0 0 163 26" fill="none" xmlns="http://www.w3.org/2000/svg">
<path d="M0.742188 20.4376H4.87785L6.2999 15.8714H12.9535L14.3755 20.4376H18.5112L11.9489 1.61182H7.31751L0.742188 20.4376ZM9.58756 5.26477H9.66583L12.0403 12.9229H7.21314L9.58756 5.26477Z" fill="#1890FF"/>
<path d="M20.1693 25.0038H23.9788V18.0501H24.0571C24.8138 19.707 26.3924 20.7246 28.3885 20.7246C31.8849 20.7246 34.0506 17.9849 34.0506 13.4448V13.4317C34.0506 8.87859 31.8849 6.16496 28.3363 6.16496C26.3533 6.16496 24.8268 7.19562 24.0702 8.89163H23.9788V6.45198H20.1693V25.0038ZM27.0838 17.5674C25.2313 17.5674 23.9658 15.9758 23.9658 13.4578V13.4448C23.9658 10.9138 25.2313 9.32216 27.0838 9.32216C28.9756 9.32216 30.1758 10.8747 30.1758 13.4317V13.4448C30.1758 15.9888 28.9756 17.5674 27.0838 17.5674Z" fill="#1890FF"/>
<path d="M36.087 25.0038H39.8965V18.0501H39.9748C40.7315 19.707 42.3101 20.7246 44.3062 20.7246C47.8026 20.7246 49.9683 17.9849 49.9683 13.4448V13.4317C49.9683 8.87859 47.8026 6.16496 44.254 6.16496C42.271 6.16496 40.7445 7.19562 39.9879 8.89163H39.8965V6.45198H36.087V25.0038ZM43.0015 17.5674C41.149 17.5674 39.8835 15.9758 39.8835 13.4578V13.4448C39.8835 10.9138 41.149 9.32216 43.0015 9.32216C44.8933 9.32216 46.0935 10.8747 46.0935 13.4317V13.4448C46.0935 15.9888 44.8933 17.5674 43.0015 17.5674Z" fill="#1890FF"/>
<path d="M52.418 20.4376H55.9274V7.70444H56.0318L61.1198 20.4376H63.5986L68.6736 7.70444H68.791V20.4376H72.3005V1.61183H67.7473L62.3984 15.1408H62.3201L56.9711 1.61183H52.418V20.4376Z" fill="#333333"/>
<path d="M79.0336 20.6594C80.8731 20.6594 82.3604 19.7853 83.1562 18.3502H83.2345V20.4376H87.044V10.8486C87.044 8.03059 84.7087 6.16498 81.0949 6.16498C77.4028 6.16498 75.185 8.01755 74.9762 10.6007L74.9632 10.7573H78.4465L78.4726 10.6398C78.6553 9.73965 79.5163 9.0743 80.9384 9.0743C82.4256 9.0743 83.2345 9.84402 83.2345 11.0834V11.9445L79.7772 12.1532C76.3069 12.375 74.3369 13.8623 74.3369 16.4063V16.4324C74.3369 18.8981 76.2287 20.6594 79.0336 20.6594ZM78.1073 16.2367V16.2106C78.1073 15.2191 78.877 14.5929 80.3513 14.5015L83.2345 14.3189V15.3235C83.2345 16.7846 81.9821 17.8805 80.273 17.8805C78.9553 17.8805 78.1073 17.2673 78.1073 16.2367Z" fill="#333333"/>
<path d="M95.3166 20.7246C98.9174 20.7246 101.435 18.9242 101.435 16.1845V16.1715C101.435 14.1102 100.235 12.9621 97.3127 12.3489L94.9383 11.8401C93.5293 11.54 93.0465 11.0704 93.0465 10.3528V10.3398C93.0465 9.43959 93.8685 8.85251 95.1861 8.85251C96.5951 8.85251 97.417 9.60919 97.5475 10.6138L97.5606 10.7181H101.07V10.5877C100.979 8.13496 98.9043 6.16498 95.1861 6.16498C91.6245 6.16498 89.3284 7.88708 89.3284 10.5485V10.5616C89.3284 12.649 90.6982 14.0058 93.4118 14.5798L95.7863 15.0756C97.1561 15.3756 97.6258 15.8062 97.6258 16.5498V16.5629C97.6258 17.463 96.7517 18.024 95.3166 18.024C93.7902 18.024 92.9683 17.3848 92.7204 16.2889L92.6943 16.1715H88.9761L88.9892 16.2889C89.2892 18.9373 91.4419 20.7246 95.3166 20.7246Z" fill="#333333"/>
<path d="M108.925 20.7246C109.721 20.7246 110.334 20.6463 110.765 20.5811V17.7892C110.53 17.8153 110.282 17.8544 109.943 17.8544C108.795 17.8544 108.208 17.4109 108.208 16.1062V9.32217H110.765V6.452H108.208V3.03387H104.359V6.452H102.415V9.32217H104.359V16.5237C104.359 19.5244 105.82 20.7246 108.925 20.7246Z" fill="#333333"/>
<path d="M119.076 20.7246C123.069 20.7246 124.999 18.3632 125.43 16.3019L125.469 16.1584H121.973L121.947 16.2367C121.673 17.0195 120.72 17.8805 119.155 17.8805C117.211 17.8805 115.997 16.5759 115.958 14.345H125.586V13.1708C125.586 8.94383 123.016 6.16498 118.92 6.16498C114.823 6.16498 112.201 9.00906 112.201 13.4578V13.4709C112.201 17.9458 114.797 20.7246 119.076 20.7246ZM118.985 9.00906C120.564 9.00906 121.699 10.0136 121.933 11.9445H115.997C116.245 10.0528 117.419 9.00906 118.985 9.00906Z" fill="#333333"/>
<path d="M127.61 20.4376H131.419V12.6098C131.419 10.5746 132.515 9.45264 134.394 9.45264C134.942 9.45264 135.464 9.53091 135.777 9.66138V6.30849C135.49 6.23021 135.098 6.16498 134.681 6.16498C133.05 6.16498 131.915 7.16954 131.498 8.89165H131.419V6.452H127.61V20.4376Z" fill="#333333"/>
<path d="M137.944 20.6594C139.118 20.6594 140.057 19.72 140.057 18.5459C140.057 17.3587 139.118 16.4324 137.944 16.4324C136.757 16.4324 135.83 17.3587 135.83 18.5459C135.83 19.72 136.757 20.6594 137.944 20.6594Z" fill="#333333"/>
<path d="M144.442 4.65161C145.59 4.65161 146.477 3.75142 146.477 2.66858C146.477 1.58574 145.59 0.685547 144.442 0.685547C143.294 0.685547 142.407 1.58574 142.407 2.66858C142.407 3.75142 143.294 4.65161 144.442 4.65161ZM142.537 20.4376H146.347V6.452H142.537V20.4376Z" fill="#333333"/>
<path d="M155.376 20.7246C159.603 20.7246 162.304 18.011 162.304 13.4448V13.4187C162.304 8.89165 159.551 6.16498 155.363 6.16498C151.188 6.16498 148.449 8.91774 148.449 13.4187V13.4448C148.449 17.9979 151.123 20.7246 155.376 20.7246ZM155.389 17.737C153.51 17.737 152.323 16.1845 152.323 13.4448V13.4187C152.323 10.7181 153.523 9.15257 155.363 9.15257C157.216 9.15257 158.429 10.7181 158.429 13.4187V13.4448C158.429 16.1715 157.242 17.737 155.389 17.737Z" fill="#333333"/>
</svg>
