<svg width="8" height="13" viewBox="0 0 8 13" fill="none" xmlns="http://www.w3.org/2000/svg">
<path d="M1.25 12.875C1.01302 12.875 0.803385 12.793 0.621094 12.6289C0.457031 12.4466 0.375 12.237 0.375 12C0.375 11.763 0.457031 11.5534 0.621094 11.3711L5.26953 6.75L0.621094 2.12891C0.457031 1.94661 0.375 1.73698 0.375 1.5C0.375 1.26302 0.457031 1.05339 0.621094 0.871094C0.803385 0.707031 1.01302 0.625 1.25 0.625C1.48698 0.625 1.69661 0.707031 1.87891 0.871094L7.12891 6.12109C7.29297 6.30339 7.375 6.51302 7.375 6.75C7.375 6.98698 7.29297 7.19661 7.12891 7.37891L1.87891 12.6289C1.69661 12.793 1.48698 12.875 1.25 12.875Z" fill="#39364E" fill-opacity="0.5"/>
</svg>
