<svg width="24" height="22" viewBox="0 0 24 22" fill="none" xmlns="http://www.w3.org/2000/svg">
<path d="M6.75 11H3.75C3.28125 11.0312 3.03125 11.2812 3 11.75C3.03125 12.2188 3.28125 12.4688 3.75 12.5H6.75C7.21875 12.4688 7.46875 12.2188 7.5 11.75C7.46875 11.2812 7.21875 11.0312 6.75 11ZM6.75 8H3.75C3.28125 8.03125 3.03125 8.28125 3 8.75C3.03125 9.21875 3.28125 9.46875 3.75 9.5H6.75C7.21875 9.46875 7.46875 9.21875 7.5 8.75C7.46875 8.28125 7.21875 8.03125 6.75 8ZM3.75 6.5H6.75C7.21875 6.46875 7.46875 6.21875 7.5 5.75C7.46875 5.28125 7.21875 5.03125 6.75 5H3.75C3.28125 5.03125 3.03125 5.28125 3 5.75C3.03125 6.21875 3.28125 6.46875 3.75 6.5ZM21 0.5H3C2.15625 0.53125 1.45312 0.828125 0.890625 1.39062C0.328125 1.95312 0.03125 2.65625 0 3.5V18.5C0.03125 19.3438 0.328125 20.0469 0.890625 20.6094C1.45312 21.1719 2.15625 21.4688 3 21.5H21C21.8438 21.4688 22.5469 21.1719 23.1094 20.6094C23.6719 20.0469 23.9688 19.3438 24 18.5V3.5C23.9688 2.65625 23.6719 1.95312 23.1094 1.39062C22.5469 0.828125 21.8438 0.53125 21 0.5ZM9 20H3C2.5625 20 2.20312 19.8594 1.92188 19.5781C1.64062 19.2969 1.5 18.9375 1.5 18.5V3.5C1.5 3.0625 1.64062 2.70312 1.92188 2.42188C2.20312 2.14062 2.5625 2 3 2H9V20ZM22.5 18.5C22.5 18.9375 22.3594 19.2969 22.0781 19.5781C21.7969 19.8594 21.4375 20 21 20H10.5V2H21C21.4375 2 21.7969 2.14062 22.0781 2.42188C22.3594 2.70312 22.5 3.0625 22.5 3.5V18.5Z" fill="white"/>
</svg>
