<svg width="24" height="24" viewBox="0 0 24 24" fill="none" xmlns="http://www.w3.org/2000/svg">
<path d="M21 0H3C2.15625 0.03125 1.45312 0.328125 0.890625 0.890625C0.328125 1.45312 0.03125 2.14063 0 2.95312V16.4062C0.03125 17.25 0.328125 17.9531 0.890625 18.5156C1.45312 19.0781 2.15625 19.3594 3 19.3594H7.5V23.3906C7.5 23.6406 7.60938 23.8125 7.82812 23.9062C8.01562 24 8.20312 23.9844 8.39062 23.8594L14.25 19.4531H21C21.8438 19.4219 22.5469 19.125 23.1094 18.5625C23.6719 18 23.9688 17.3125 24 16.5V2.95312C23.9688 2.14063 23.6719 1.45312 23.1094 0.890625C22.5469 0.328125 21.8438 0.03125 21 0ZM22.5 16.5C22.5 16.9375 22.3594 17.2969 22.0781 17.5781C21.7969 17.8594 21.4375 18 21 18H14.25C13.9062 18 13.6094 18.0938 13.3594 18.2812L9 21.5625V18.75C8.96875 18.2812 8.71875 18.0312 8.25 18H3C2.5625 18 2.20312 17.8594 1.92188 17.5781C1.64062 17.2969 1.5 16.9375 1.5 16.5V3C1.5 2.5625 1.64062 2.20312 1.92188 1.92188C2.20312 1.64062 2.5625 1.5 3 1.5H21C21.4375 1.5 21.7969 1.64062 22.0781 1.92188C22.3594 2.20312 22.5 2.5625 22.5 3V16.5ZM14.5781 5.85938C14.2344 5.54687 13.8906 5.54687 13.5469 5.85938C13.2344 6.20312 13.2344 6.54688 13.5469 6.89062L16.3594 9.75L13.5469 12.6094C13.2344 12.9531 13.2344 13.2969 13.5469 13.6406C13.7031 13.7969 13.875 13.875 14.0625 13.875C14.25 13.875 14.4219 13.7969 14.5781 13.6406L17.9531 10.2656C18.2656 9.92188 18.2656 9.57812 17.9531 9.23438L14.5781 5.85938ZM10.4531 5.85938C10.1094 5.54687 9.76562 5.54687 9.42188 5.85938L6.04688 9.23438C5.73438 9.57812 5.73438 9.92188 6.04688 10.2656L9.42188 13.6406C9.57812 13.7969 9.75 13.875 9.9375 13.875C10.125 13.875 10.2969 13.7969 10.4531 13.6406C10.7656 13.2969 10.7656 12.9531 10.4531 12.6094L7.64062 9.75L10.4531 6.89062C10.7656 6.54688 10.7656 6.20312 10.4531 5.85938Z" fill="white"/>
</svg>
