<svg width="10" height="10" viewBox="0 0 10 10" fill="none" xmlns="http://www.w3.org/2000/svg">
<path d="M10 0.75V8.25C9.95833 8.70833 9.70833 8.95833 9.25 9C8.79167 8.95833 8.54167 8.70833 8.5 8.25V2.5625L1.28125 9.78125C1.13542 9.92708 0.958333 10 0.75 10C0.541667 10 0.364583 9.92708 0.21875 9.78125C-0.0729167 9.42708 -0.0729167 9.07292 0.21875 8.71875L7.4375 1.5H1.75C1.29167 1.45833 1.04167 1.20833 1 0.75C1.04167 0.291667 1.29167 0.0416667 1.75 0H9.25C9.70833 0.0416667 9.95833 0.291667 10 0.75Z" fill="white"/>
</svg>
