<svg width="11" height="13" viewBox="0 0 11 13" fill="none" xmlns="http://www.w3.org/2000/svg">
<path d="M10.3711 5.62891L2.49609 0.816406C2.27734 0.688802 2.04948 0.625 1.8125 0.625C1.42969 0.643229 1.11979 0.770833 0.882812 1.00781C0.627604 1.26302 0.5 1.57292 0.5 1.9375V11.5625C0.5 11.9271 0.627604 12.237 0.882812 12.4922C1.11979 12.7292 1.42969 12.8568 1.8125 12.875C2.04948 12.875 2.27734 12.8112 2.49609 12.6836L10.3711 7.87109C10.7721 7.59766 10.9818 7.22396 11 6.75C10.9818 6.27604 10.7721 5.90234 10.3711 5.62891ZM1.8125 11.5625V1.9375L9.6875 6.72266L1.8125 11.5625Z" fill="#0075FF"/>
</svg>
