<svg width="41" height="40" viewBox="0 0 41 40" fill="none" xmlns="http://www.w3.org/2000/svg">
<g clip-path="url(#clip0)">
<rect width="40" height="40" transform="translate(0.5)" fill="white"/>
<rect x="0.5" y="2" width="40" height="35" rx="3" fill="#ECF3FF"/>
<path d="M10.2727 21.341C10.8375 21.341 11.2955 20.878 11.2955 20.307V14.034C11.2955 13.463 10.8375 13 10.2727 13C9.70791 13 9.25 13.463 9.25 14.034V20.307C9.25 20.878 9.70791 21.341 10.2727 21.341ZM18.4545 23.409C17.8897 23.409 17.4318 23.872 17.4318 24.443V30.716C17.4318 31.287 17.8897 31.75 18.4545 31.75C19.0194 31.75 19.4773 31.287 19.4773 30.716V24.443C19.4773 23.872 19.0194 23.409 18.4545 23.409ZM22.5455 21.341C23.1103 21.341 23.5682 20.878 23.5682 20.307V14.034C23.5682 13.463 23.1103 13 22.5455 13C21.9806 13 21.5227 13.463 21.5227 14.034V20.307C21.5227 20.878 21.9806 21.341 22.5455 21.341ZM30.7273 23.409C30.1625 23.409 29.7045 23.872 29.7045 24.443V30.716C29.7045 31.287 30.1625 31.75 30.7273 31.75C31.2921 31.75 31.75 31.287 31.75 30.716V24.443C31.75 23.872 31.2921 23.409 30.7273 23.409ZM18.4545 13H14.3636C13.7988 13 13.3409 13.463 13.3409 14.034V20.307C13.3409 20.878 13.7988 21.341 14.3636 21.341H18.4545C19.0194 21.341 19.4773 20.878 19.4773 20.307V14.034C19.4773 13.463 19.0194 13 18.4545 13ZM17.4318 19.273H15.3864V15.068H17.4318V19.273ZM14.3636 23.409H10.2727C9.70791 23.409 9.25 23.872 9.25 24.443V30.716C9.25 31.287 9.70791 31.75 10.2727 31.75H14.3636C14.9285 31.75 15.3864 31.287 15.3864 30.716V24.443C15.3864 23.872 14.9285 23.409 14.3636 23.409ZM13.3409 29.682H11.2955V25.477H13.3409V29.682ZM26.6364 23.409H22.5455C21.9806 23.409 21.5227 23.872 21.5227 24.443V30.716C21.5227 31.287 21.9806 31.75 22.5455 31.75H26.6364C27.2012 31.75 27.6591 31.287 27.6591 30.716V24.443C27.6591 23.872 27.2012 23.409 26.6364 23.409ZM25.6136 29.682H23.5682V25.477H25.6136V29.682ZM30.7273 13H26.6364C26.0715 13 25.6136 13.463 25.6136 14.034V20.307C25.6136 20.878 26.0715 21.341 26.6364 21.341H30.7273C31.2921 21.341 31.75 20.878 31.75 20.307V14.034C31.75 13.463 31.2921 13 30.7273 13ZM29.7045 19.273H27.6591V15.068H29.7045V19.273Z" fill="#363636"/>
<path d="M0.5 5C0.5 3.34315 1.84315 2 3.5 2H37.5C39.1569 2 40.5 3.34315 40.5 5V9H0.5V5Z" fill="#1890FF"/>
<circle cx="27" cy="5.5" r="1.5" fill="#E5524D"/>
<circle cx="32" cy="5.5" r="1.5" fill="#F0C947"/>
<circle cx="37" cy="5.5" r="1.5" fill="#47CB5C"/>
</g>
<defs>
<clipPath id="clip0">
<rect width="40" height="40" fill="white" transform="translate(0.5)"/>
</clipPath>
</defs>
</svg>
