<svg width="31" height="40" viewBox="0 0 31 40" fill="none" xmlns="http://www.w3.org/2000/svg">
<path d="M4.01563 36.3281H27.4531V19.9219H4.01563V36.3281ZM25.1094 5.85938L22.7656 0H1.67188C1.01555 0 0.5 0.515547 0.5 1.17188V16.4062C0.5 17.7007 1.5493 18.75 2.84375 18.75H28.625C29.9195 18.75 30.9688 17.7007 30.9688 16.4062V8.20312L25.1094 5.85938Z" fill="#1890FF"/>
<rect x="2.5" y="19" width="26" height="17" fill="#363636"/>
<path d="M0.5 38.8281C0.5 39.4843 1.01555 40 1.67188 40H29.7969C30.4532 40 30.9688 39.4843 30.9688 38.8281V16.4062H0.5V38.8281ZM20.7735 25.4296C20.3048 24.9843 20.3048 24.2343 20.7735 23.789C21.2188 23.3203 21.9687 23.3203 22.4141 23.789L25.9297 27.3046C26.3984 27.7499 26.3984 28.4999 25.9297 28.9452L22.4141 32.4609C21.9925 32.9296 21.1953 32.9298 20.7735 32.4609C20.3048 32.0155 20.3048 31.2655 20.7735 30.8202L23.4452 28.125L20.7735 25.4296ZM12.3124 33.5391L16.9999 21.8203C17.2344 21.2344 17.914 20.9297 18.5234 21.1874C19.1094 21.4219 19.4141 22.1015 19.1563 22.7109L14.4688 34.4297C14.2574 35.0035 13.5612 35.3266 12.9453 35.0624C12.3594 34.8281 12.0547 34.1484 12.3124 33.5391ZM5.53914 27.3046L9.05477 23.789C9.50008 23.3203 10.2499 23.3203 10.6953 23.789C11.1641 24.2343 11.1641 24.9843 10.6953 25.4296L8.02352 28.125L10.6953 30.8202C11.1641 31.2655 11.1641 32.0155 10.6953 32.4609C10.2738 32.9296 9.47656 32.9298 9.05477 32.4609L5.53914 28.9452C5.07031 28.4999 5.07031 27.7499 5.53914 27.3046ZM23.9375 8.20312H30.9688C30.9688 7.89844 30.8516 7.59375 30.6171 7.38273L23.5859 0.351484C23.375 0.117188 23.0703 0 22.7656 0V7.03125C22.7656 7.67844 23.2903 8.20312 23.9375 8.20312Z" fill="#ECF3FF"/>
</svg>
