<svg width="39" height="40" viewBox="0 0 39 40" fill="none" xmlns="http://www.w3.org/2000/svg">
<path d="M24.7302 27.2647C32.2399 27.2647 38.3277 21.1613 38.3277 13.6323C38.3277 6.10341 32.2399 0 24.7302 0C17.2206 0 11.1328 6.10341 11.1328 13.6323C11.1328 21.1613 17.2206 27.2647 24.7302 27.2647Z" fill="#1890FF"/>
<path d="M28.7383 7.79025C28.4626 7.60314 28.0872 7.67478 27.9 7.95071L20.6473 18.6358C20.46 18.9116 20.5318 19.287 20.8076 19.4742C20.9115 19.5447 21.0294 19.5785 21.1461 19.5785C21.3394 19.5785 21.5293 19.4858 21.646 19.3138L28.8987 8.62876C29.0861 8.3529 29.0143 7.97743 28.7383 7.79025Z" fill="white"/>
<path d="M28.704 13.978C27.4478 13.978 26.4258 15.2341 26.4258 16.7782C26.4258 18.3222 27.4478 19.5783 28.704 19.5783C29.9601 19.5783 30.9821 18.3222 30.9821 16.7782C30.9821 15.2341 29.9602 13.978 28.704 13.978ZM28.704 18.3711C28.1234 18.3711 27.633 17.6416 27.633 16.7782C27.633 15.9147 28.1235 15.1853 28.704 15.1853C29.2845 15.1853 29.7748 15.9147 29.7748 16.7782C29.7749 17.6416 29.2845 18.3711 28.704 18.3711Z" fill="white"/>
<path d="M23.0329 10.4862C23.0329 8.94213 22.0109 7.68604 20.7548 7.68604C19.4986 7.68604 18.4766 8.94213 18.4766 10.4862C18.4766 12.0303 19.4985 13.2864 20.7548 13.2864C22.0109 13.2864 23.0329 12.0303 23.0329 10.4862ZM19.6838 10.4862C19.6838 9.62276 20.1743 8.8933 20.7548 8.8933C21.3352 8.8933 21.8256 9.62276 21.8256 10.4862C21.8256 11.3496 21.3352 12.0791 20.7548 12.0791C20.1743 12.0791 19.6838 11.3497 19.6838 10.4862Z" fill="white"/>
<path d="M10.2559 38.2892C10.2559 39.2339 8.11047 39.9999 5.46391 39.9999C2.81734 39.9999 0.671875 39.2339 0.671875 38.2892C0.671875 37.7788 0.671875 35.561 0.671875 35.561H10.256C10.2559 35.561 10.2559 37.3444 10.2559 38.2892Z" fill="#FFE563"/>
<path d="M7.03789 35.561V38.2892C7.03789 39.0323 5.71008 39.6645 3.85547 39.9006C4.35867 39.9647 4.90031 39.9999 5.46516 39.9999C8.11172 39.9999 10.2572 39.2339 10.2572 38.2892C10.2572 37.3444 10.2572 35.561 10.2572 35.561H7.03789Z" fill="#FFDC2E"/>
<path d="M10.2559 35.5611C10.2559 36.5059 8.11047 37.2718 5.46391 37.2718C2.81734 37.2718 0.671875 36.5059 0.671875 35.5611C0.671875 35.0507 0.671875 32.833 0.671875 32.833H10.256C10.2559 32.8329 10.2559 34.6163 10.2559 35.5611Z" fill="#FFB700"/>
<path d="M7.03789 32.833V35.5611C7.03789 36.3043 5.71008 36.9365 3.85547 37.1726C4.35867 37.2367 4.90031 37.2718 5.46516 37.2718C8.11172 37.2718 10.2572 36.5059 10.2572 35.5611C10.2572 34.6164 10.2572 32.833 10.2572 32.833H7.03789Z" fill="#F5B000"/>
<path d="M10.2559 32.8331C10.2559 33.7779 8.11047 34.5438 5.46391 34.5438C2.81734 34.5438 0.671875 33.7779 0.671875 32.8331C0.671875 32.3227 0.671875 30.105 0.671875 30.105H10.256C10.2559 30.105 10.2559 31.8883 10.2559 32.8331Z" fill="#FFE563"/>
<path d="M7.03789 30.105V32.8331C7.03789 33.5762 5.71008 34.2085 3.85547 34.4446C4.35867 34.5087 4.90031 34.5438 5.46516 34.5438C8.11172 34.5438 10.2572 33.7779 10.2572 32.8331C10.2572 31.8883 10.2572 30.105 10.2572 30.105H7.03789Z" fill="#FFDC2E"/>
<path d="M10.2559 30.1051C10.2559 31.0498 8.11047 31.8158 5.46391 31.8158C2.81734 31.8158 0.671875 31.0498 0.671875 30.1051C0.671875 29.5947 0.671875 27.377 0.671875 27.377H10.256C10.2559 27.3769 10.2559 29.1602 10.2559 30.1051Z" fill="#FFB700"/>
<path d="M7.03789 27.377V30.1051C7.03789 30.8483 5.71008 31.4805 3.85547 31.7166C4.35867 31.7806 4.90031 31.8158 5.46516 31.8158C8.11172 31.8158 10.2572 31.0498 10.2572 30.1051C10.2572 29.1603 10.2572 27.377 10.2572 27.377H7.03789Z" fill="#F5B000"/>
<path d="M5.46391 29.0874C8.11047 29.0874 10.2559 28.3215 10.2559 27.3767C10.2559 26.4319 8.11047 25.666 5.46391 25.666C2.81734 25.666 0.671875 26.4319 0.671875 27.3767C0.671875 28.3215 2.81734 29.0874 5.46391 29.0874Z" fill="#FFE563"/>
<path d="M19.8419 38.2892C19.8419 39.2339 17.6964 39.9999 15.0499 39.9999C12.4033 39.9999 10.2578 39.2339 10.2578 38.2892C10.2578 37.7788 10.2578 35.561 10.2578 35.561H19.8419V38.2892Z" fill="#FFB700"/>
<path d="M16.6199 35.561V38.2892C16.6199 39.0323 15.2921 39.6645 13.4375 39.9006C13.9407 39.9647 14.4823 39.9999 15.0472 39.9999C17.6937 39.9999 19.8392 39.2339 19.8392 38.2892C19.8392 37.3444 19.8392 35.561 19.8392 35.561H16.6199Z" fill="#F5B000"/>
<path d="M19.8419 35.5611C19.8419 36.5059 17.6964 37.2718 15.0499 37.2718C12.4033 37.2718 10.2578 36.5059 10.2578 35.5611C10.2578 35.0507 10.2578 32.833 10.2578 32.833H19.8419C19.8419 32.8329 19.8419 34.6163 19.8419 35.5611Z" fill="#FFE563"/>
<path d="M16.6199 32.833V35.5611C16.6199 36.3043 15.2921 36.9365 13.4375 37.1726C13.9407 37.2367 14.4823 37.2718 15.0472 37.2718C17.6937 37.2718 19.8392 36.5059 19.8392 35.5611C19.8392 34.6164 19.8392 32.833 19.8392 32.833H16.6199Z" fill="#FFDC2E"/>
<path d="M19.8419 32.8331C19.8419 33.7779 17.6964 34.5438 15.0499 34.5438C12.4033 34.5438 10.2578 33.7779 10.2578 32.8331C10.2578 32.3227 10.2578 30.105 10.2578 30.105H19.8419V32.8331Z" fill="#FFB700"/>
<path d="M16.6199 30.105V32.8331C16.6199 33.5762 15.2921 34.2085 13.4375 34.4446C13.9407 34.5087 14.4823 34.5438 15.0472 34.5438C17.6937 34.5438 19.8392 33.7779 19.8392 32.8331C19.8392 31.8883 19.8392 30.105 19.8392 30.105H16.6199Z" fill="#F5B000"/>
<path d="M19.8419 30.1051C19.8419 31.0498 17.6964 31.8158 15.0499 31.8158C12.4033 31.8158 10.2578 31.0498 10.2578 30.1051C10.2578 29.5947 10.2578 27.377 10.2578 27.377H19.8419C19.8419 27.3769 19.8419 29.1602 19.8419 30.1051Z" fill="#FFE563"/>
<path d="M16.6199 27.377V30.1051C16.6199 30.8483 15.2921 31.4805 13.4375 31.7166C13.9407 31.7806 14.4823 31.8158 15.0472 31.8158C17.6937 31.8158 19.8392 31.0498 19.8392 30.1051C19.8392 29.1603 19.8392 27.377 19.8392 27.377H16.6199Z" fill="#FFDC2E"/>
<path d="M19.8419 27.3336C19.8419 28.2784 17.6964 29.0443 15.0499 29.0443C12.4033 29.0443 10.2578 28.2784 10.2578 27.3336C10.2578 26.8232 10.2578 24.6055 10.2578 24.6055H19.8419C19.8419 24.6054 19.8419 26.3888 19.8419 27.3336Z" fill="#FFB700"/>
<path d="M16.6199 24.605V27.3331C16.6199 28.0762 15.2921 28.7085 13.4375 28.9446C13.9407 29.0087 14.4823 29.0438 15.0472 29.0438C17.6937 29.0438 19.8392 28.2779 19.8392 27.3331C19.8392 26.3883 19.8392 24.605 19.8392 24.605H16.6199Z" fill="#F5B000"/>
<path d="M19.8419 24.5621C19.8419 25.5069 17.6964 26.2728 15.0499 26.2728C12.4033 26.2728 10.2578 25.5069 10.2578 24.5621C10.2578 24.0517 10.2578 21.834 10.2578 21.834H19.8419C19.8419 21.8339 19.8419 23.6173 19.8419 24.5621Z" fill="#FFE563"/>
<path d="M16.6238 21.834V24.5621C16.6238 25.3052 15.296 25.9375 13.4414 26.1736C13.9446 26.2377 14.4862 26.2728 15.0511 26.2728C17.6976 26.2728 19.8431 25.5069 19.8431 24.5621C19.8431 23.6173 19.8431 21.834 19.8431 21.834H16.6238Z" fill="#FFDC2E"/>
<path d="M15.0498 23.5445C17.6964 23.5445 19.8419 22.7785 19.8419 21.8337C19.8419 20.889 17.6964 20.123 15.0498 20.123C12.4033 20.123 10.2578 20.889 10.2578 21.8337C10.2578 22.7785 12.4033 23.5445 15.0498 23.5445Z" fill="#FFB700"/>
<path d="M29.4239 35.561V38.2892C29.4239 38.2892 27.2784 39.9999 24.6319 39.9999C21.9853 39.9999 19.8398 39.2339 19.8398 38.2892C19.8398 37.7788 19.8398 35.561 19.8398 35.561H29.4239Z" fill="#FFE563"/>
<path d="M26.2059 35.561V38.2892C26.2059 39.0323 24.878 39.6645 23.0234 39.9006C23.5266 39.9647 24.0683 39.9999 24.6331 39.9999C27.2797 39.9999 29.4252 39.2339 29.4252 38.2892C29.4252 37.3444 29.4252 35.561 29.4252 35.561H26.2059Z" fill="#FFDC2E"/>
<path d="M29.4239 35.5611C29.4239 36.5059 27.2784 37.2718 24.6319 37.2718C21.9853 37.2718 19.8398 36.5059 19.8398 35.5611C19.8398 35.0507 19.8398 32.833 19.8398 32.833H29.424C29.4239 32.8329 29.4239 34.6163 29.4239 35.5611Z" fill="#FFB700"/>
<path d="M26.2059 32.833V35.5611C26.2059 36.3043 24.878 36.9365 23.0234 37.1726C23.5266 37.2367 24.0683 37.2718 24.6331 37.2718C27.2797 37.2718 29.4252 36.5059 29.4252 35.5611C29.4252 34.6164 29.4252 32.833 29.4252 32.833H26.2059Z" fill="#F5B000"/>
<path d="M24.6319 34.5435C27.2784 34.5435 29.4239 33.7776 29.4239 32.8328C29.4239 31.888 27.2784 31.1221 24.6319 31.1221C21.9853 31.1221 19.8398 31.888 19.8398 32.8328C19.8398 33.7776 21.9853 34.5435 24.6319 34.5435Z" fill="#FFE563"/>
</svg>
