<svg width="30" height="30" viewBox="0 0 30 30" fill="none" xmlns="http://www.w3.org/2000/svg">
<path d="M0 5.00002C0 2.23858 2.23858 0 5 0H25C27.7614 0 30 2.23858 30 5.00002V25C30 27.7614 27.7614 30 25 30H5C2.23858 30 0 27.7614 0 25V5.00002Z" fill="#1890FF"/>
<path d="M10.8552 7.5C11.2959 7.5 11.7322 7.58679 12.1393 7.75541C12.5464 7.92404 12.9162 8.17118 13.2278 8.48277C13.5394 8.79431 13.7865 9.16419 13.9551 9.57128C14.1237 9.97833 14.2105 10.4147 14.2105 10.8553V14.2105H10.8552C9.96537 14.2105 9.11198 13.857 8.48275 13.2278C7.85351 12.5986 7.50002 11.7451 7.50002 10.8553C7.50002 9.96539 7.85351 9.11196 8.48275 8.48277C9.11198 7.85353 9.96537 7.5 10.8552 7.5ZM10.8552 15.7895H14.2105V19.1447C14.2105 19.8083 14.0137 20.457 13.645 21.0088C13.2764 21.5606 12.7524 21.9906 12.1393 22.2446C11.5262 22.4986 10.8516 22.565 10.2007 22.4355C9.54985 22.3061 8.95199 21.9865 8.48275 21.5172C8.0135 21.048 7.69392 20.4502 7.56446 19.7993C7.43501 19.1485 7.50146 18.4738 7.75539 17.8607C8.00936 17.2476 8.43939 16.7236 8.99116 16.3549C9.54294 15.9863 10.1917 15.7895 10.8552 15.7895ZM19.1447 7.5C20.0346 7.5 20.888 7.85353 21.5173 8.48277C22.1465 9.11196 22.5 9.96539 22.5 10.8553C22.5 11.7451 22.1465 12.5986 21.5173 13.2278C20.888 13.857 20.0346 14.2105 19.1447 14.2105H15.7895V10.8553C15.7895 9.96539 16.143 9.11196 16.7722 8.48277C17.4014 7.85353 18.2549 7.5 19.1447 7.5ZM15.7895 15.7895H19.1447C19.8084 15.7895 20.457 15.9863 21.0088 16.3549C21.5606 16.7236 21.9907 17.2476 22.2446 17.8607C22.4986 18.4738 22.565 19.1485 22.4355 19.7993C22.3061 20.4502 21.9865 21.048 21.5173 21.5172C21.048 21.9865 20.4502 22.3061 19.7993 22.4355C19.1485 22.565 18.4738 22.4986 17.8607 22.2446C17.2476 21.9906 16.7236 21.5606 16.3549 21.0088C15.9863 20.457 15.7895 19.8083 15.7895 19.1447V15.7895Z" fill="white"/>
</svg>
