<svg width="10" height="15" viewBox="0 0 10 15" fill="none" xmlns="http://www.w3.org/2000/svg">
<path d="M7.625 0.75H2.375C1.88281 0.768229 1.47266 0.941406 1.14453 1.26953C0.816406 1.59766 0.643229 2.00781 0.625 2.5V13C0.643229 13.4922 0.816406 13.9023 1.14453 14.2305C1.47266 14.5586 1.88281 14.7318 2.375 14.75H7.625C8.11719 14.7318 8.52734 14.5586 8.85547 14.2305C9.18359 13.9023 9.35677 13.4922 9.375 13V2.5C9.35677 2.00781 9.18359 1.59766 8.85547 1.26953C8.52734 0.941406 8.11719 0.768229 7.625 0.75ZM8.5 13C8.5 13.2552 8.41797 13.4648 8.25391 13.6289C8.08984 13.793 7.88021 13.875 7.625 13.875H2.375C2.11979 13.875 1.91016 13.793 1.74609 13.6289C1.58203 13.4648 1.5 13.2552 1.5 13V2.5C1.5 2.24479 1.58203 2.03516 1.74609 1.87109C1.91016 1.70703 2.11979 1.625 2.375 1.625H7.625C7.88021 1.625 8.08984 1.70703 8.25391 1.87109C8.41797 2.03516 8.5 2.24479 8.5 2.5V13ZM5.875 11.6875H4.125C3.85156 11.7057 3.70573 11.8516 3.6875 12.125C3.70573 12.3984 3.85156 12.5443 4.125 12.5625H5.875C6.14844 12.5443 6.29427 12.3984 6.3125 12.125C6.29427 11.8516 6.14844 11.7057 5.875 11.6875Z" fill="white"/>
</svg>
