<svg width="14" height="13" viewBox="0 0 14 13" fill="none" xmlns="http://www.w3.org/2000/svg">
<path d="M12.25 0.625H1.75C1.25781 0.643229 0.847656 0.816406 0.519531 1.14453C0.191406 1.47266 0.0182292 1.88281 0 2.375V11.125C0.0182292 11.6172 0.191406 12.0273 0.519531 12.3555C0.847656 12.6836 1.25781 12.8568 1.75 12.875H12.2227C12.7148 12.8568 13.125 12.6836 13.4531 12.3555C13.7812 12.0273 13.9544 11.6172 13.9727 11.125V2.375C13.9727 1.88281 13.8086 1.47266 13.4805 1.14453C13.1523 0.816406 12.7422 0.643229 12.25 0.625ZM0.875 5H6.5625V8.0625H0.875V5ZM1.75 12C1.49479 12 1.28516 11.918 1.12109 11.7539C0.957031 11.5898 0.875 11.3802 0.875 11.125V8.9375H6.5625V12H1.75ZM13.125 11.125C13.125 11.3802 13.043 11.5898 12.8789 11.7539C12.7148 11.918 12.5052 12 12.25 12H7.4375V8.9375H13.125V11.125ZM13.125 8.0625H7.4375V5H13.125V8.0625ZM13.125 4.125H0.875V2.375C0.875 2.11979 0.957031 1.91016 1.12109 1.74609C1.28516 1.58203 1.49479 1.5 1.75 1.5H12.25C12.5052 1.5 12.7148 1.58203 12.8789 1.74609C13.043 1.91016 13.125 2.11979 13.125 2.375V4.125Z" fill="white"/>
</svg>
