<svg width="14" height="15" viewBox="0 0 14 15" fill="none" xmlns="http://www.w3.org/2000/svg">
<path d="M13.125 8.1875H8.75C8.49479 8.1875 8.28516 8.26953 8.12109 8.43359C7.95703 8.59766 7.875 8.80729 7.875 9.0625V13.4375C7.875 13.6927 7.95703 13.9023 8.12109 14.0664C8.28516 14.2305 8.49479 14.3125 8.75 14.3125H13.125C13.3802 14.3125 13.5898 14.2305 13.7539 14.0664C13.918 13.9023 14 13.6927 14 13.4375V9.0625C14 8.80729 13.918 8.59766 13.7539 8.43359C13.5898 8.26953 13.3802 8.1875 13.125 8.1875ZM13.125 13.4375H8.75V9.0625H13.125V13.4375ZM5.27734 6.875H10.4453C10.8099 6.85677 11.0742 6.71094 11.2383 6.4375C11.4023 6.16406 11.4023 5.8724 11.2383 5.5625L8.66797 1.1875C8.48568 0.914062 8.22135 0.768229 7.875 0.75C7.52865 0.768229 7.26432 0.914062 7.08203 1.1875L4.51172 5.53516C4.34766 5.86328 4.34766 6.16406 4.51172 6.4375C4.65755 6.71094 4.91276 6.85677 5.27734 6.875ZM7.84766 1.65234C7.84766 1.63411 7.85677 1.625 7.875 1.625H7.90234L10.4453 6H5.22266L7.84766 1.65234ZM3.5 7.75C2.51562 7.76823 1.6862 8.10547 1.01172 8.76172C0.355469 9.4362 0.0182292 10.2656 0 11.25C0.0182292 12.2344 0.355469 13.0638 1.01172 13.7383C1.6862 14.3945 2.51562 14.7318 3.5 14.75C4.48438 14.7318 5.3138 14.3945 5.98828 13.7383C6.64453 13.0638 6.98177 12.2344 7 11.25C6.98177 10.2656 6.64453 9.4362 5.98828 8.76172C5.3138 8.10547 4.48438 7.76823 3.5 7.75ZM3.5 13.875C2.7526 13.8568 2.13281 13.6016 1.64062 13.1094C1.14844 12.6172 0.893229 11.9974 0.875 11.25C0.893229 10.5026 1.14844 9.88281 1.64062 9.39062C2.13281 8.89844 2.7526 8.64323 3.5 8.625C4.2474 8.64323 4.86719 8.89844 5.35938 9.39062C5.85156 9.88281 6.10677 10.5026 6.125 11.25C6.10677 11.9974 5.85156 12.6172 5.35938 13.1094C4.86719 13.6016 4.2474 13.8568 3.5 13.875Z" fill="white"/>
</svg>
