<svg width="24" height="24" viewBox="0 0 24 24" fill="none" xmlns="http://www.w3.org/2000/svg">
<g clip-path="url(#clip0)">
<rect width="33.6" height="24" rx="2" fill="white"/>
<mask id="mask0" mask-type="alpha" maskUnits="userSpaceOnUse" x="0" y="0" width="34" height="24">
<rect width="33.6" height="24" rx="2" fill="white"/>
</mask>
<g mask="url(#mask0)">
<path fill-rule="evenodd" clip-rule="evenodd" d="M33.6 0H0V1.6H33.6V0ZM33.6 3.20007H0V4.80007H33.6V3.20007ZM0 6.39998H33.6V7.99998H0V6.39998ZM33.6 9.59999H0V11.2H33.6V9.59999ZM0 12.8001H33.6V14.4001H0V12.8001ZM33.6 16H0V17.6H33.6V16ZM0 19.2H33.6V20.8H0V19.2ZM33.6 22.4H0V24H33.6V22.4Z" fill="#D02F44"/>
<rect width="14.4" height="11.2" fill="#46467F"/>
<g filter="url(#filter0_d)">
<path fill-rule="evenodd" clip-rule="evenodd" d="M3.20156 2.4001C3.20156 2.84193 2.84339 3.2001 2.40156 3.2001C1.95973 3.2001 1.60156 2.84193 1.60156 2.4001C1.60156 1.95827 1.95973 1.6001 2.40156 1.6001C2.84339 1.6001 3.20156 1.95827 3.20156 2.4001ZM6.40177 2.4001C6.40177 2.84193 6.0436 3.2001 5.60177 3.2001C5.15995 3.2001 4.80177 2.84193 4.80177 2.4001C4.80177 1.95827 5.15995 1.6001 5.60177 1.6001C6.0436 1.6001 6.40177 1.95827 6.40177 2.4001ZM8.8014 3.2001C9.24323 3.2001 9.6014 2.84193 9.6014 2.4001C9.6014 1.95827 9.24323 1.6001 8.8014 1.6001C8.35957 1.6001 8.0014 1.95827 8.0014 2.4001C8.0014 2.84193 8.35957 3.2001 8.8014 3.2001ZM12.8016 2.4001C12.8016 2.84193 12.4434 3.2001 12.0016 3.2001C11.5598 3.2001 11.2016 2.84193 11.2016 2.4001C11.2016 1.95827 11.5598 1.6001 12.0016 1.6001C12.4434 1.6001 12.8016 1.95827 12.8016 2.4001ZM4.0015 4.80006C4.44333 4.80006 4.8015 4.44188 4.8015 4.00006C4.8015 3.55823 4.44333 3.20006 4.0015 3.20006C3.55967 3.20006 3.2015 3.55823 3.2015 4.00006C3.2015 4.44188 3.55967 4.80006 4.0015 4.80006ZM8.00146 4.00006C8.00146 4.44188 7.64329 4.80006 7.20147 4.80006C6.75964 4.80006 6.40146 4.44188 6.40146 4.00006C6.40146 3.55823 6.75964 3.20006 7.20147 3.20006C7.64329 3.20006 8.00146 3.55823 8.00146 4.00006ZM10.4017 4.80006C10.8435 4.80006 11.2017 4.44188 11.2017 4.00006C11.2017 3.55823 10.8435 3.20006 10.4017 3.20006C9.95985 3.20006 9.60168 3.55823 9.60168 4.00006C9.60168 4.44188 9.95985 4.80006 10.4017 4.80006ZM12.8016 5.60016C12.8016 6.04199 12.4434 6.40016 12.0016 6.40016C11.5598 6.40016 11.2016 6.04199 11.2016 5.60016C11.2016 5.15834 11.5598 4.80016 12.0016 4.80016C12.4434 4.80016 12.8016 5.15834 12.8016 5.60016ZM8.8014 6.40016C9.24323 6.40016 9.6014 6.04199 9.6014 5.60016C9.6014 5.15834 9.24323 4.80016 8.8014 4.80016C8.35957 4.80016 8.0014 5.15834 8.0014 5.60016C8.0014 6.04199 8.35957 6.40016 8.8014 6.40016ZM6.40177 5.60016C6.40177 6.04199 6.0436 6.40016 5.60177 6.40016C5.15995 6.40016 4.80177 6.04199 4.80177 5.60016C4.80177 5.15834 5.15995 4.80016 5.60177 4.80016C6.0436 4.80016 6.40177 5.15834 6.40177 5.60016ZM2.40156 6.40016C2.84339 6.40016 3.20156 6.04199 3.20156 5.60016C3.20156 5.15834 2.84339 4.80016 2.40156 4.80016C1.95973 4.80016 1.60156 5.15834 1.60156 5.60016C1.60156 6.04199 1.95973 6.40016 2.40156 6.40016ZM4.8015 7.20012C4.8015 7.64195 4.44333 8.00012 4.0015 8.00012C3.55967 8.00012 3.2015 7.64195 3.2015 7.20012C3.2015 6.75829 3.55967 6.40012 4.0015 6.40012C4.44333 6.40012 4.8015 6.75829 4.8015 7.20012ZM7.20147 8.00012C7.64329 8.00012 8.00146 7.64195 8.00146 7.20012C8.00146 6.75829 7.64329 6.40012 7.20147 6.40012C6.75964 6.40012 6.40146 6.75829 6.40146 7.20012C6.40146 7.64195 6.75964 8.00012 7.20147 8.00012ZM11.2017 7.20012C11.2017 7.64195 10.8435 8.00012 10.4017 8.00012C9.95985 8.00012 9.60168 7.64195 9.60168 7.20012C9.60168 6.75829 9.95985 6.40012 10.4017 6.40012C10.8435 6.40012 11.2017 6.75829 11.2017 7.20012ZM12.0016 9.60008C12.4434 9.60008 12.8016 9.24191 12.8016 8.80008C12.8016 8.35825 12.4434 8.00008 12.0016 8.00008C11.5598 8.00008 11.2016 8.35825 11.2016 8.80008C11.2016 9.24191 11.5598 9.60008 12.0016 9.60008ZM9.6014 8.80008C9.6014 9.24191 9.24323 9.60008 8.8014 9.60008C8.35957 9.60008 8.0014 9.24191 8.0014 8.80008C8.0014 8.35825 8.35957 8.00008 8.8014 8.00008C9.24323 8.00008 9.6014 8.35825 9.6014 8.80008ZM5.60177 9.60008C6.0436 9.60008 6.40177 9.24191 6.40177 8.80008C6.40177 8.35825 6.0436 8.00008 5.60177 8.00008C5.15995 8.00008 4.80177 8.35825 4.80177 8.80008C4.80177 9.24191 5.15995 9.60008 5.60177 9.60008ZM3.20156 8.80008C3.20156 9.24191 2.84339 9.60008 2.40156 9.60008C1.95973 9.60008 1.60156 9.24191 1.60156 8.80008C1.60156 8.35825 1.95973 8.00008 2.40156 8.00008C2.84339 8.00008 3.20156 8.35825 3.20156 8.80008Z" fill="url(#paint0_linear)"/>
</g>
</g>
</g>
<defs>
<filter id="filter0_d" x="1.60156" y="1.6001" width="11.2" height="8.99998" filterUnits="userSpaceOnUse" color-interpolation-filters="sRGB">
<feFlood flood-opacity="0" result="BackgroundImageFix"/>
<feColorMatrix in="SourceAlpha" type="matrix" values="0 0 0 0 0 0 0 0 0 0 0 0 0 0 0 0 0 0 127 0" result="hardAlpha"/>
<feOffset dy="1"/>
<feColorMatrix type="matrix" values="0 0 0 0 0 0 0 0 0 0 0 0 0 0 0 0 0 0 0.06 0"/>
<feBlend mode="normal" in2="BackgroundImageFix" result="effect1_dropShadow"/>
<feBlend mode="normal" in="SourceGraphic" in2="effect1_dropShadow" result="shape"/>
</filter>
<linearGradient id="paint0_linear" x1="1.60156" y1="1.6001" x2="1.60156" y2="9.6001" gradientUnits="userSpaceOnUse">
<stop stop-color="white"/>
<stop offset="1" stop-color="#F0F0F0"/>
</linearGradient>
<clipPath id="clip0">
<rect width="24" height="24" fill="white"/>
</clipPath>
</defs>
</svg>
