<svg width="14" height="13" viewBox="0 0 14 13" fill="none" xmlns="http://www.w3.org/2000/svg">
<path d="M12.25 0.625H1.75C1.25781 0.643229 0.847656 0.816406 0.519531 1.14453C0.191406 1.47266 0.0182292 1.88281 0 2.375V11.125C0.0182292 11.6172 0.191406 12.0273 0.519531 12.3555C0.847656 12.6836 1.25781 12.8568 1.75 12.875H12.25C12.7422 12.8568 13.1523 12.6836 13.4805 12.3555C13.8086 12.0273 13.9818 11.6172 14 11.125V2.375C13.9818 1.88281 13.8086 1.47266 13.4805 1.14453C13.1523 0.816406 12.7422 0.643229 12.25 0.625ZM13.125 11.125C13.125 11.3802 13.043 11.5898 12.8789 11.7539C12.7148 11.918 12.5052 12 12.25 12H1.75C1.49479 12 1.28516 11.918 1.12109 11.7539C0.957031 11.5898 0.875 11.3802 0.875 11.125V2.375C0.875 2.11979 0.957031 1.91016 1.12109 1.74609C1.28516 1.58203 1.49479 1.5 1.75 1.5H12.25C12.5052 1.5 12.7148 1.58203 12.8789 1.74609C13.043 1.91016 13.125 2.11979 13.125 2.375V11.125ZM6.125 2.59375C5.72396 2.63021 5.50521 2.84896 5.46875 3.25C5.50521 3.65104 5.72396 3.86979 6.125 3.90625C6.52604 3.86979 6.74479 3.65104 6.78125 3.25C6.74479 2.84896 6.52604 2.63021 6.125 2.59375ZM8.75 2.59375C8.34896 2.63021 8.13021 2.84896 8.09375 3.25C8.13021 3.65104 8.34896 3.86979 8.75 3.90625C9.15104 3.86979 9.36979 3.65104 9.40625 3.25C9.36979 2.84896 9.15104 2.63021 8.75 2.59375ZM11.375 2.59375C10.974 2.63021 10.7552 2.84896 10.7188 3.25C10.7552 3.65104 10.974 3.86979 11.375 3.90625C11.776 3.86979 11.9948 3.65104 12.0312 3.25C11.9948 2.84896 11.776 2.63021 11.375 2.59375Z" fill="white"/>
</svg>
